<svg viewBox="0 0 93 29" xmlns="http://www.w3.org/2000/svg" xmlns:xlink="http://www.w3.org/1999/xlink" width="93.000000" height="29.000000" fill="none">
	<rect id="logo" width="93.000000" height="29.000000" x="0.000000" y="0.000000" />
	<path id="Dwello" d="M6.20173 27.6257L6.20173 10.8257L14.1457 10.8257C16.0017 10.8257 17.6337 11.1697 19.0417 11.8577C20.4497 12.5457 21.5457 13.5137 22.3297 14.7617C23.1297 16.0097 23.5297 17.4977 23.5297 19.2257C23.5297 20.9377 23.1297 22.4257 22.3297 23.6897C21.5457 24.9377 20.4497 25.9057 19.0417 26.5937C17.6337 27.2817 16.0017 27.6257 14.1457 27.6257L6.20173 27.6257ZM10.9537 23.8337L13.9537 23.8337C14.9137 23.8337 15.7457 23.6577 16.4497 23.3057C17.1697 22.9377 17.7297 22.4097 18.1297 21.7217C18.5297 21.0177 18.7297 20.1857 18.7297 19.2257C18.7297 18.2497 18.5297 17.4177 18.1297 16.7297C17.7297 16.0417 17.1697 15.5217 16.4497 15.1697C15.7457 14.8017 14.9137 14.6177 13.9537 14.6177L10.9537 14.6177L10.9537 23.8337ZM28.9099 27.6257L24.2779 14.6177L28.5979 14.6177L32.2699 25.4897L30.2059 25.4897L34.0219 14.6177L37.9099 14.6177L41.5819 25.4897L39.5659 25.4897L43.3579 14.6177L47.3659 14.6177L42.7339 27.6257L38.3179 27.6257L35.1979 18.6257L36.5419 18.6257L33.3259 27.6257L28.9099 27.6257ZM55.2236 27.8417C53.6876 27.8417 52.3436 27.5537 51.1916 26.9777C50.0556 26.3857 49.1676 25.5857 48.5276 24.5777C47.9036 23.5537 47.5916 22.3937 47.5916 21.0977C47.5916 19.8017 47.8956 18.6497 48.5036 17.6417C49.1276 16.6177 49.9836 15.8257 51.0716 15.2657C52.1596 14.6897 53.3836 14.4017 54.7436 14.4017C56.0236 14.4017 57.1916 14.6657 58.2476 15.1937C59.3036 15.7057 60.1436 16.4657 60.7676 17.4737C61.3916 18.4817 61.7036 19.7057 61.7036 21.1457C61.7036 21.3057 61.6956 21.4897 61.6796 21.6977C61.6636 21.9057 61.6476 22.0977 61.6316 22.2737L51.3356 22.2737L51.3356 19.8737L59.2076 19.8737L57.4796 20.5457C57.4956 19.9537 57.3836 19.4417 57.1436 19.0097C56.9196 18.5777 56.5996 18.2417 56.1836 18.0017C55.7836 17.7617 55.3116 17.6417 54.7676 17.6417C54.2236 17.6417 53.7436 17.7617 53.3276 18.0017C52.9276 18.2417 52.6156 18.5857 52.3916 19.0337C52.1676 19.4657 52.0556 19.9777 52.0556 20.5697L52.0556 21.2657C52.0556 21.9057 52.1836 22.4577 52.4396 22.9217C52.7116 23.3857 53.0956 23.7457 53.5916 24.0017C54.0876 24.2417 54.6796 24.3617 55.3676 24.3617C56.0076 24.3617 56.5516 24.2737 56.9996 24.0977C57.4636 23.9057 57.9196 23.6177 58.3676 23.2337L60.7676 25.7297C60.1436 26.4177 59.3756 26.9457 58.4636 27.3137C57.5516 27.6657 56.4716 27.8417 55.2236 27.8417ZM63.806 27.6257L63.806 9.81773L68.366 9.81773L68.366 27.6257L63.806 27.6257ZM71.3295 27.6257L71.3295 9.81773L75.8895 9.81773L75.8895 27.6257L71.3295 27.6257ZM85.3809 27.8417C83.9569 27.8417 82.6929 27.5537 81.5889 26.9777C80.4849 26.4017 79.6129 25.6097 78.9729 24.6017C78.3489 23.5777 78.0369 22.4097 78.0369 21.0977C78.0369 19.7857 78.3489 18.6257 78.9729 17.6177C79.6129 16.6097 80.4849 15.8257 81.5889 15.2657C82.6929 14.6897 83.9569 14.4017 85.3809 14.4017C86.8049 14.4017 88.0689 14.6897 89.1729 15.2657C90.2929 15.8257 91.1649 16.6097 91.7889 17.6177C92.4129 18.6257 92.7249 19.7857 92.7249 21.0977C92.7249 22.4097 92.4129 23.5777 91.7889 24.6017C91.1649 25.6097 90.2929 26.4017 89.1729 26.9777C88.0689 27.5537 86.8049 27.8417 85.3809 27.8417ZM85.3809 24.2177C85.9089 24.2177 86.3729 24.0977 86.7729 23.8577C87.1889 23.6177 87.5169 23.2657 87.7569 22.8017C87.9969 22.3217 88.1169 21.7537 88.1169 21.0977C88.1169 20.4417 87.9969 19.8897 87.7569 19.4417C87.5169 18.9777 87.1889 18.6257 86.7729 18.3857C86.3729 18.1457 85.9089 18.0257 85.3809 18.0257C84.8689 18.0257 84.4049 18.1457 83.9889 18.3857C83.5889 18.6257 83.2609 18.9777 83.0049 19.4417C82.7649 19.8897 82.6449 20.4417 82.6449 21.0977C82.6449 21.7537 82.7649 22.3217 83.0049 22.8017C83.2609 23.2657 83.5889 23.6177 83.9889 23.8577C84.4049 24.0977 84.8689 24.2177 85.3809 24.2177Z" fill="rgb(42,27,18)" fill-rule="nonzero" />
	<line id="Line 6" x1="0" x2="20.2105274" y1="0" y2="0" stroke="rgb(42,27,18)" stroke-width="3.78947377" transform="matrix(-4.37114e-08,-1,1,-4.37114e-08,1.89471,28.1235)" />
	<line id="Line 7" x1="0" x2="24" y1="6.01831055" y2="6.01831055" stroke="rgb(42,27,18)" stroke-width="3.78947377" />
	<line id="Line 8" x1="0" x2="14.695652" y1="1.13037109" y2="1.13037109" stroke="rgb(42,27,18)" stroke-width="2.2608695" />
</svg>
