<svg viewBox="0 0 21.998 22" xmlns="http://www.w3.org/2000/svg" xmlns:xlink="http://www.w3.org/1999/xlink" width="21.997986" height="22.000000" fill="none" customFrame="#000000">
	<path id="Vector" d="M21.56 19.4452L18.9148 16.7981C22.3906 12.1533 21.4429 5.57034 16.7981 2.09462C12.1533 -1.3811 5.57031 -0.433388 2.09459 4.21139C-1.38113 8.85616 -0.433418 15.4392 4.21136 18.9149C7.94242 21.7069 13.067 21.7069 16.7981 18.9149L19.4452 21.562C20.0292 22.146 20.976 22.146 21.5599 21.562C22.1439 20.978 22.1439 20.0312 21.5599 19.4472L21.56 19.4452ZM10.5434 18.0179C6.41539 18.0179 3.06898 14.6715 3.06898 10.5435C3.06898 6.41542 6.41539 3.06901 10.5434 3.06901C14.6715 3.06901 18.0179 6.41542 18.0179 10.5435C18.0135 14.6697 14.6697 18.0136 10.5434 18.0179Z" fill="rgb(43,27,18)" fill-rule="nonzero" />
</svg>
