<svg viewBox="0 0 14.6668 22" xmlns="http://www.w3.org/2000/svg" xmlns:xlink="http://www.w3.org/1999/xlink" width="14.666840" height="22.000000" fill="none" customFrame="#000000">
	<path id="Vector" d="M12.8336 5.49982C12.8336 8.53727 10.3712 10.9996 7.33379 10.9996C4.29759 10.9966 1.83698 8.53603 1.83397 5.49982C1.83397 2.46237 4.29634 0 7.33379 0C10.3712 0 12.8336 2.46237 12.8336 5.49982ZM10.0837 5.49982C10.0837 3.9811 8.85252 2.74991 7.33379 2.74991C5.81507 2.74991 4.58388 3.9811 4.58388 5.49982C4.58388 7.01855 5.81507 8.24973 7.33379 8.24973C8.85252 8.24973 10.0837 7.01855 10.0837 5.49982ZM6.83142 12.8502C2.92495 13.2033 -0.0512246 16.5042 0.000636986 20.4262L0.000636986 20.6251C0.000636986 21.3844 0.61623 22 1.37559 22C2.13496 22 2.75055 21.3844 2.75055 20.6251L2.75055 20.3712C2.70921 17.9631 4.48634 15.9095 6.87542 15.6047C9.3973 15.3546 11.6445 17.1963 11.8945 19.7182C11.9093 19.8673 11.9168 20.017 11.9169 20.1668L11.9169 20.6251C11.9169 21.3844 12.5325 22 13.2919 22C14.0512 22 14.6668 21.3844 14.6668 20.6251L14.6668 20.1667C14.6624 16.1122 11.3719 12.829 7.31738 12.8335C7.15526 12.8337 6.99319 12.8392 6.83142 12.8502Z" fill="rgb(43,27,18)" fill-rule="evenodd" />
</svg>
